<svg width="224" height="62" viewBox="0 0 224 62" fill="none" xmlns="http://www.w3.org/2000/svg">
<path d="M22.5 18.8438C22.5 18.4708 22.3518 18.1131 22.0881 17.8494C21.8244 17.5857 21.4667 17.4375 21.0938 17.4375C20.7208 17.4375 20.3631 17.5857 20.0994 17.8494C19.8357 18.1131 19.6875 18.4708 19.6875 18.8438V34.3125C19.6876 34.5604 19.7532 34.8038 19.8776 35.0182C20.0021 35.2325 20.181 35.4102 20.3962 35.5331L30.24 41.1581C30.563 41.3327 30.9416 41.374 31.2946 41.2732C31.6477 41.1724 31.9474 40.9375 32.1296 40.6187C32.3118 40.2999 32.362 39.9224 32.2696 39.5671C32.1772 39.2117 31.9494 38.9065 31.635 38.7169L22.5 33.4969V18.8438Z" fill="#25B954"/>
<path d="M22.5 54C28.4674 54 34.1903 51.6295 38.4099 47.4099C42.6295 43.1903 45 37.4674 45 31.5C45 25.5326 42.6295 19.8097 38.4099 15.5901C34.1903 11.3705 28.4674 9 22.5 9C16.5326 9 10.8097 11.3705 6.5901 15.5901C2.37053 19.8097 0 25.5326 0 31.5C0 37.4674 2.37053 43.1903 6.5901 47.4099C10.8097 51.6295 16.5326 54 22.5 54V54ZM42.1875 31.5C42.1875 36.7214 40.1133 41.729 36.4212 45.4212C32.729 49.1133 27.7214 51.1875 22.5 51.1875C17.2786 51.1875 12.271 49.1133 8.57883 45.4212C4.88671 41.729 2.8125 36.7214 2.8125 31.5C2.8125 26.2786 4.88671 21.271 8.57883 17.5788C12.271 13.8867 17.2786 11.8125 22.5 11.8125C27.7214 11.8125 32.729 13.8867 36.4212 17.5788C40.1133 21.271 42.1875 26.2786 42.1875 31.5V31.5Z" fill="#25B954"/>
<path d="M59.1079 49V15.496H74.1799C75.7159 15.496 77.0919 15.752 78.3079 16.264C79.5559 16.744 80.6119 17.448 81.4759 18.376C82.3399 19.272 82.9959 20.36 83.4439 21.64C83.8919 22.92 84.1159 24.328 84.1159 25.864C84.1159 27.432 83.8919 28.856 83.4439 30.136C82.9959 31.384 82.3399 32.472 81.4759 33.4C80.6119 34.296 79.5559 35 78.3079 35.512C77.0919 35.992 75.7159 36.232 74.1799 36.232H65.4439V49H59.1079ZM65.4439 30.76H73.6039C74.8199 30.76 75.7799 30.44 76.4839 29.8C77.1879 29.128 77.5399 28.184 77.5399 26.968V24.76C77.5399 23.544 77.1879 22.616 76.4839 21.976C75.7799 21.336 74.8199 21.016 73.6039 21.016H65.4439V30.76ZM98.4724 49.576C96.6804 49.576 95.0644 49.272 93.6244 48.664C92.2164 48.056 91.0004 47.176 89.9764 46.024C88.9844 44.872 88.2164 43.496 87.6724 41.896C87.1284 40.264 86.8564 38.44 86.8564 36.424C86.8564 34.408 87.1284 32.6 87.6724 31C88.2164 29.4 88.9844 28.04 89.9764 26.92C91.0004 25.768 92.2164 24.888 93.6244 24.28C95.0644 23.672 96.6804 23.368 98.4724 23.368C100.264 23.368 101.88 23.672 103.32 24.28C104.76 24.888 105.976 25.768 106.968 26.92C107.992 28.04 108.776 29.4 109.32 31C109.864 32.6 110.136 34.408 110.136 36.424C110.136 38.44 109.864 40.264 109.32 41.896C108.776 43.496 107.992 44.872 106.968 46.024C105.976 47.176 104.76 48.056 103.32 48.664C101.88 49.272 100.264 49.576 98.4724 49.576ZM98.4724 44.632C100.104 44.632 101.384 44.136 102.312 43.144C103.24 42.152 103.704 40.696 103.704 38.776V34.12C103.704 32.232 103.24 30.792 102.312 29.8C101.384 28.808 100.104 28.312 98.4724 28.312C96.8724 28.312 95.6084 28.808 94.6804 29.8C93.7524 30.792 93.2884 32.232 93.2884 34.12V38.776C93.2884 40.696 93.7524 42.152 94.6804 43.144C95.6084 44.136 96.8724 44.632 98.4724 44.632ZM115.583 49V23.944H121.727V28.12H121.967C122.447 26.808 123.215 25.688 124.271 24.76C125.327 23.832 126.799 23.368 128.687 23.368C130.415 23.368 131.903 23.784 133.151 24.616C134.399 25.448 135.327 26.712 135.935 28.408H136.031C136.479 27 137.359 25.816 138.671 24.856C140.015 23.864 141.695 23.368 143.711 23.368C146.175 23.368 148.063 24.216 149.375 25.912C150.719 27.608 151.391 30.024 151.391 33.16V49H145.247V33.784C145.247 30.2 143.903 28.408 141.215 28.408C140.607 28.408 140.015 28.504 139.439 28.696C138.895 28.856 138.399 29.112 137.951 29.464C137.535 29.784 137.199 30.2 136.943 30.712C136.687 31.192 136.559 31.768 136.559 32.44V49H130.415V33.784C130.415 30.2 129.071 28.408 126.383 28.408C125.807 28.408 125.231 28.504 124.655 28.696C124.111 28.856 123.615 29.112 123.167 29.464C122.751 29.784 122.399 30.2 122.111 30.712C121.855 31.192 121.727 31.768 121.727 32.44V49H115.583ZM168.129 49.576C166.337 49.576 164.721 49.272 163.281 48.664C161.873 48.056 160.657 47.176 159.633 46.024C158.641 44.872 157.873 43.496 157.329 41.896C156.785 40.264 156.513 38.44 156.513 36.424C156.513 34.408 156.785 32.6 157.329 31C157.873 29.4 158.641 28.04 159.633 26.92C160.657 25.768 161.873 24.888 163.281 24.28C164.721 23.672 166.337 23.368 168.129 23.368C169.921 23.368 171.537 23.672 172.977 24.28C174.417 24.888 175.633 25.768 176.625 26.92C177.649 28.04 178.433 29.4 178.977 31C179.521 32.6 179.793 34.408 179.793 36.424C179.793 38.44 179.521 40.264 178.977 41.896C178.433 43.496 177.649 44.872 176.625 46.024C175.633 47.176 174.417 48.056 172.977 48.664C171.537 49.272 169.921 49.576 168.129 49.576ZM168.129 44.632C169.761 44.632 171.041 44.136 171.969 43.144C172.897 42.152 173.361 40.696 173.361 38.776V34.12C173.361 32.232 172.897 30.792 171.969 29.8C171.041 28.808 169.761 28.312 168.129 28.312C166.529 28.312 165.265 28.808 164.337 29.8C163.409 30.792 162.945 32.232 162.945 34.12V38.776C162.945 40.696 163.409 42.152 164.337 43.144C165.265 44.136 166.529 44.632 168.129 44.632ZM186.206 28.792H182.51V23.944H186.206V20.344C186.206 18.136 186.782 16.44 187.934 15.256C189.118 14.072 190.846 13.48 193.118 13.48H197.486V18.376H192.35V23.944H197.486V28.792H192.35V49H186.206V28.792ZM217.568 23.944H223.328L213.248 53.464C212.928 54.36 212.56 55.128 212.144 55.768C211.76 56.44 211.296 56.984 210.752 57.4C210.208 57.816 209.552 58.12 208.784 58.312C208.016 58.504 207.12 58.6 206.096 58.6H202.4V53.704H206.912L208.064 50.2L199.088 23.944H205.184L209.552 37.192L211.184 43.528H211.472L213.2 37.192L217.568 23.944Z" fill="white"/>
</svg>
